<svg width="30" height="30" viewBox="0 0 30 30" fill="none" xmlns="http://www.w3.org/2000/svg">
<path d="M6.05474 17.2583L15.8206 6.03627C17.4387 4.17694 20.2577 3.98135 22.117 5.59942C23.9764 7.21749 24.1719 10.0365 22.5539 11.8958L21.0901 13.5778C20.3673 13.2858 19.5774 13.125 18.75 13.125C15.2982 13.125 12.5 15.9232 12.5 19.375M6.05474 17.2583C4.43668 19.1177 4.63226 21.9367 6.49159 23.5547C8.79617 25.5603 11.5655 24.5226 13.332 22.4928C12.8027 21.5751 12.5 20.5104 12.5 19.375M6.05474 17.2583L11.426 11.0862C12.4083 12.813 13.283 13.9819 14.3915 14.8954C13.2247 16.0309 12.5 17.6183 12.5 19.375" stroke="#488099" stroke-width="2"/>
<path d="M19.9504 6.85717C18.3399 6.44168 17.3633 7.56389 16.875 8.12499" stroke="#488099" stroke-width="2" stroke-linecap="round"/>
<path d="M25 19.375C25 22.8268 22.2018 25.625 18.75 25.625C15.2982 25.625 12.5 22.8268 12.5 19.375C12.5 15.9232 15.2982 13.125 18.75 13.125C22.2018 13.125 25 15.9232 25 19.375Z" stroke="#488099" stroke-width="2"/>
<path d="M14.524 20.5073L22.9759 18.2427" stroke="#488099" stroke-width="2" stroke-linecap="round"/>
</svg>
