<svg width="24" height="24" viewBox="0 0 24 24" fill="none" xmlns="http://www.w3.org/2000/svg">
<path fill-rule="evenodd" clip-rule="evenodd" d="M12.001 1.19995C8.17696 1.19995 5.077 4.3003 5.077 8.12477V10.0201C5.077 10.6193 4.76617 11.1756 4.25591 11.4897L2.77646 12.4002C0.387286 13.8707 0.796434 17.4607 3.45518 18.3558L4.47004 18.6974C5.49354 19.0419 6.53476 19.3143 7.58629 19.5145L7.58848 19.5192C7.75226 19.8661 8.00465 20.3334 8.35871 20.8056C9.05743 21.7374 10.2434 22.7999 12.001 22.7999C13.7585 22.7999 14.9445 21.7374 15.6432 20.8056C15.9973 20.3334 16.2497 19.8661 16.4135 19.5192L16.4157 19.5145C17.4672 19.3143 18.5084 19.0419 19.5318 18.6974L20.5467 18.3558C23.2055 17.4607 23.6146 13.8707 21.2255 12.4002L19.746 11.4897C19.2357 11.1756 18.9249 10.6193 18.9249 10.0201V8.12477C18.9249 4.3003 15.8249 1.19995 12.001 1.19995ZM14.3065 19.8181C12.7732 19.9686 11.2287 19.9686 9.69542 19.8181C10.2422 20.5438 10.9928 21.138 12.001 21.138C13.0092 21.138 13.7597 20.5438 14.3065 19.8181ZM6.73875 8.12477C6.73875 5.21817 9.09472 2.86191 12.001 2.86191C14.9072 2.86191 17.2632 5.21817 17.2632 8.12477V10.0201C17.2632 11.1965 17.8734 12.2886 18.8751 12.9051L20.3545 13.8157C21.544 14.5477 21.3403 16.335 20.0166 16.7806L19.0017 17.1223C14.4597 18.6512 9.54216 18.6512 5.00015 17.1223L3.98528 16.7806C2.66161 16.335 2.45792 14.5477 3.64738 13.8157L5.12683 12.9051C6.12855 12.2886 6.73875 11.1965 6.73875 10.0201V8.12477Z" fill="#11607E"/>
<path fill-rule="evenodd" clip-rule="evenodd" d="M21.8059 1.99746C22.0282 2.44204 21.848 2.98265 21.4035 3.20494L20.2034 3.80494C19.7589 4.02723 19.2183 3.84702 18.996 3.40244C18.7737 2.95786 18.9539 2.41726 19.3985 2.19497L20.5985 1.59497C21.043 1.37268 21.5837 1.55288 21.8059 1.99746Z" fill="#11607E"/>
<path fill-rule="evenodd" clip-rule="evenodd" d="M2.16729 1.99746C1.945 2.44204 2.1252 2.98265 2.56978 3.20494L3.76978 3.80494C4.21436 4.02723 4.75497 3.84702 4.97726 3.40244C5.19955 2.95786 5.01935 2.41726 4.57477 2.19497L3.37477 1.59497C2.93019 1.37268 2.38958 1.55288 2.16729 1.99746Z" fill="#11607E"/>
<path fill-rule="evenodd" clip-rule="evenodd" d="M19.7741 7.2612C19.7741 6.76414 20.1771 6.3612 20.6741 6.3612H21.8741C22.3712 6.3612 22.7741 6.76414 22.7741 7.2612C22.7741 7.75826 22.3712 8.1612 21.8741 8.1612H20.6741C20.1771 8.1612 19.7741 7.75826 19.7741 7.2612Z" fill="#11607E"/>
<path fill-rule="evenodd" clip-rule="evenodd" d="M4.19905 7.2612C4.19905 6.76414 3.79611 6.3612 3.29905 6.3612H2.09905C1.60199 6.3612 1.19905 6.76414 1.19905 7.2612C1.19905 7.75826 1.60199 8.1612 2.09905 8.1612H3.29905C3.79611 8.1612 4.19905 7.75826 4.19905 7.2612Z" fill="#11607E"/>
</svg>
