<svg width="137" height="151" viewBox="0 0 137 151" fill="none" xmlns="http://www.w3.org/2000/svg">
<path d="M115.852 18.3C114.793 15.5646 113.347 13.2877 111.375 11.3297C103.993 4 92.1122 4 68.35 4C44.5878 4 32.7066 4 25.3246 11.3297C23.3526 13.2877 21.9074 15.5646 20.8482 18.3M18.3 118.4C18.9231 128.549 20.633 135.012 25.3246 139.67C32.7066 147 44.5878 147 68.35 147C92.1122 147 103.993 147 111.375 139.67C116.067 135.012 117.777 128.549 118.4 118.4" stroke="#D2E4E8" stroke-width="8" stroke-linecap="round"/>
<path d="M25.45 61.2L39.75 75.5M39.75 61.2L25.45 75.5" stroke="#D2E4E8" stroke-width="8" stroke-linecap="round" stroke-linejoin="round"/>
<path d="M61.2 61.2L75.5 75.5M75.5 61.2L61.2 75.5" stroke="#D2E4E8" stroke-width="8" stroke-linecap="round" stroke-linejoin="round"/>
<path d="M96.95 61.2L111.25 75.5M111.25 61.2L96.95 75.5" stroke="#D2E4E8" stroke-width="8" stroke-linecap="round" stroke-linejoin="round"/>
<path d="M104.1 39.75H32.6C19.1178 39.75 12.3767 39.75 8.18837 43.9384C4 48.1267 4 54.8678 4 68.35C4 81.8322 4 88.5733 8.18837 92.7616C12.3767 96.95 19.1178 96.95 32.6 96.95H104.1C117.582 96.95 124.323 96.95 128.512 92.7616C132.7 88.5733 132.7 81.8322 132.7 68.35C132.7 54.8678 132.7 48.1267 128.512 43.9384C124.323 39.75 117.582 39.75 104.1 39.75Z" stroke="#D2E4E8" stroke-width="8" stroke-linecap="round" stroke-linejoin="round"/>
<path d="M68.35 125.55V125.622" stroke="#D2E4E8" stroke-width="8" stroke-linecap="round" stroke-linejoin="round"/>
</svg>
