<svg width="34" height="34" viewBox="0 0 34 34" fill="none" xmlns="http://www.w3.org/2000/svg">
<ellipse cx="8.19208" cy="24.6376" rx="2.71015" ry="2.71015" stroke="#E45E6C" stroke-width="2"/>
<ellipse cx="25.5369" cy="24.6376" rx="2.71015" ry="2.71015" stroke="#E45E6C" stroke-width="2"/>
<path d="M22.4202 10.4094L22.4203 6.66663C22.4203 6.11434 21.9725 5.66663 21.4203 5.66663H2.41663C1.86434 5.66663 1.41663 6.11434 1.41663 6.66663V19.8949C1.41663 20.2691 1.71997 20.5724 2.09416 20.5724M22.4202 10.4094L22.481 20.5724M22.4202 10.4094H25.8079M29.3319 24.2124H31.5833C32.1356 24.2124 32.5833 23.7646 32.5833 23.2124V17.8623M21.9042 24.2124H19.154M11.9682 24.2124H14.2898M4.62412 24.2124C4.62412 24.2124 3.15905 24.2124 2.22029 24.2124C2.15063 24.2124 2.09416 24.1559 2.09416 24.0862V20.5724M2.09416 20.5724H14.2898M22.4203 20.5724H22.481M14.2898 24.2124V20.5724M14.2898 24.2124H19.154M14.2898 20.5724H19.154M19.154 24.2124V20.5724M19.154 20.5724H22.481M25.8079 10.4094H27.8405L31.1188 13.6877C32.0565 14.6254 32.5833 15.8971 32.5833 17.2232V17.8623M25.8079 10.4094V16.8623C25.8079 17.4146 26.2557 17.8623 26.8079 17.8623H32.5833" stroke="#E45E6C" stroke-width="2" stroke-linecap="round" stroke-linejoin="round"/>
</svg>
